#!OML:ASF H:\Not Pregnant\Project 1\Capture day 1\Session 1\non-pregnant.ASF
:FULLY-SPECIFIED
:DEGREES
2699
root 7.6919 14.1382 30.8784 85.9804 -46.8555 -66.9543
lowerback 5.1071 -3.01109 -16.7027
upperback -7.72368 -7.64168 -10.4369
thorax -11.0963 -3.11256 -1.20905
lowerneck 8.87684 -12.0039 -24.0401
upperneck -14.4762 -21.2664 51.4037
head 5.3362 -14.8535 24.421
rclavicle -1.59028e-014 -5.725e-014
rhumerus -39.2878 -45.1286 23.6566
rradius 28.5027
rwrist 32.2587
rhand -8.53971 -13.824
rfingers 7.12502
rthumb 17.3895 -43.0661
lclavicle -1.59028e-014 -5.725e-014
lhumerus -7.37471 24.8008 -4.43301
lradius 28.1608
lwrist 15.733
lhand -18.2733 -12.2822
lfingers 7.12502
lthumb 8.00655 17.5462
rfemur -8.63947 4.29528 39.951
rtibia 7.95139e-015
rfoot -11.1617 -2.82534
rtoes -19.5141
lfemur -36.4442 26.1258 49.7673
ltibia 27.6065
lfoot -20.1678 46.4029
ltoes 34.9043
2700
root 7.69032 14.1318 30.8765 85.9726 -46.643 -66.887
lowerback 5.17581 -3.0215 -16.7865
upperback -7.65656 -7.69877 -10.612
thorax -11.0802 -3.14843 -1.34915
lowerneck 8.95531 -12.0331 -24.0236
upperneck -14.6204 -21.2833 51.4255
head 5.28989 -14.8854 24.4253
rclavicle -3.02153e-014 -1.11319e-013
rhumerus -38.8833 -44.8172 23.3962
rradius 28.6417
rwrist 31.9682
rhand -8.9309 -13.8502
rfingers 7.12502
rthumb 17.013 -43.1252
lclavicle -3.02153e-014 -1.11319e-013
lhumerus -7.68324 24.5652 -4.21051
lradius 28.1029
lwrist 15.552
lhand -18.0508 -12.2853
lfingers 7.12502
lthumb 8.22133 17.5347
rfemur -8.7038 4.26046 40.1451
rtibia 4.77083e-015
rfoot -11.1559 -2.74818
rtoes -19.096
lfemur -36.3284 25.1611 50.4331
ltibia 27.5773
lfoot -21.3977 46.7764
ltoes 35.0258
2701
root 7.68859 14.1255 30.8747 85.9834 -46.438 -66.8095
lowerback 5.22405 -3.0382 -16.8695
upperback -7.59714 -7.7624 -10.7916
thorax -11.0617 -3.18825 -1.49553
lowerneck 9.04905 -12.0644 -24.0146
upperneck -14.7605 -21.3165 51.4608
head 5.25509 -14.9306 24.4412
rclavicle 7.95139e-015 8.5875e-014
rhumerus -38.4903 -44.5042 23.125
rradius 28.7869
rwrist 31.6613
rhand -9.3219 -13.8592
rfingers 7.12502
rthumb 16.6366 -43.1662
lclavicle 7.95139e-015 8.5875e-014
lhumerus -7.97205 24.3462 -4.0018
lradius 28.049
lwrist 15.3805
lhand -17.7518 -12.1944
lfingers 7.12502
lthumb 8.50988 17.6142
rfemur -8.79716 4.2283 40.328
rtibia 1.59028e-015
rfoot -11.1571 -2.6604
rtoes -18.6146
lfemur -36.2439 24.2134 51.0812
ltibia 27.5576
lfoot -22.6577 47.1317
ltoes 35.196
2702
root 7.68675 14.1195 30.873 86.0156 -46.2414 -66.7246
lowerback 5.25091 -3.06105 -16.956
upperback -7.54506 -7.83203 -10.9734
thorax -11.0391 -3.23132 -1.64378
lowerneck 9.15177 -12.0945 -24.0222
upperneck -14.8974 -21.3674 51.5257
head 5.24116 -14.9928 24.4867
rclavicle 8.26944e-014 3.81667e-014
rhumerus -38.1123 -44.1994 22.8485
rradius 28.9379
rwrist 31.3505
rhand -9.73118 -13.8525
rfingers 7.12502
rthumb 16.2425 -43.1921
lclavicle 8.26944e-014 3.81667e-014
lhumerus -8.24716 24.12 -3.80908
lradius 27.9998
lwrist 15.2395
lhand -17.4372 -12.0958
lfingers 7.12502
lthumb 8.81346 17.7002
rfemur -8.91932 4.20118 40.4993
rtibia 4.77083e-015
rfoot -11.1655 -2.56133
rtoes -18.0696
lfemur -36.1912 23.2843 51.7136
ltibia 27.5547
lfoot -23.9543 47.4598
ltoes 35.3823
2703
root 7.68442 14.1137 30.8723 86.0456 -46.0573 -66.6501
lowerback 5.28164 -3.07872 -17.0465
upperback -7.49203 -7.89779 -11.163
thorax -11.0198 -3.27281 -1.79913
lowerneck 9.28262 -12.1268 -24.0266
upperneck -15.0452 -21.4309 51.6049
head 5.22804 -15.0689 24.5441
rclavicle 5.08889e-014 -3.81667e-014
rhumerus -37.7584 -43.8965 22.574
rradius 29.0949
rwrist 31.047
rhand -10.0841 -13.8523
rfingers 7.12502
rthumb 15.9027 -43.2194
lclavicle 5.08889e-014 -3.81667e-014
lhumerus -8.50564 23.9051 -3.62822
lradius 27.9621
lwrist 15.1086
lhand -17.0901 -11.9689
lfingers 7.12502
lthumb 9.1484 17.8127
rfemur -9.02736 4.17755 40.6555
rtibia -7.95139e-015
rfoot -11.1839 -2.45682
rtoes -17.4805
lfemur -36.1418 22.3431 52.3344
ltibia 27.5733
lfoot -25.2859 47.7537
ltoes 35.5698
2704
root 7.68129 14.1084 30.8731 86.0706 -45.8979 -66.6006
lowerback 5.32161 -3.08743 -17.1553
upperback -7.43214 -7.95554 -11.3581
thorax -10.9987 -3.30974 -1.9521
lowerneck 9.42588 -12.1617 -24.0359
upperneck -15.2081 -21.5026 51.6942
head 5.21644 -15.1536 24.6105
rclavicle 3.49861e-014 0
rhumerus -37.4253 -43.6222 22.3116
rradius 29.2501
rwrist 30.7759
rhand -10.4392 -13.8353
rfingers 7.12502
rthumb 15.5607 -43.2292
lclavicle 3.49861e-014 0
lhumerus -8.74894 23.6932 -3.46543
lradius 27.9236
lwrist 14.9782
lhand -16.7397 -11.8174
lfingers 7.12502
lthumb 9.48647 17.9491
rfemur -9.10267 4.16255 40.7848
rtibia 2.54444e-014
rfoot -11.2141 -2.34821
rtoes -16.8437
lfemur -36.3405 22.9688 52.2485
ltibia 27.6222
lfoot -24.3895 47.3387
ltoes 35.7485
